<mxfile host="app.diagrams.net" modified="2021-05-10T01:20:13.338Z" agent="5.0 (Windows)" etag="H2D9z5CL0uqdj_s7momt" version="14.6.11" type="github">
  <diagram id="kgpKYQtTHZ0yAKxKKP6v" name="Page-1">
    <mxGraphModel dx="1550" dy="835" grid="1" gridSize="10" guides="1" tooltips="1" connect="1" arrows="1" fold="1" page="1" pageScale="1" pageWidth="850" pageHeight="1100" math="0" shadow="0">
      <root>
        <mxCell id="0" />
        <mxCell id="1" parent="0" />
        <mxCell id="FA2n_a_aYbFm5MKbmlmY-5" style="edgeStyle=orthogonalEdgeStyle;rounded=0;orthogonalLoop=1;jettySize=auto;html=1;exitX=0.5;exitY=1;exitDx=0;exitDy=0;entryX=0.5;entryY=0;entryDx=0;entryDy=0;" edge="1" parent="1" source="FA2n_a_aYbFm5MKbmlmY-1" target="FA2n_a_aYbFm5MKbmlmY-3">
          <mxGeometry relative="1" as="geometry" />
        </mxCell>
        <mxCell id="FA2n_a_aYbFm5MKbmlmY-1" value="Soil Moisture Sensor" style="rounded=0;whiteSpace=wrap;html=1;" vertex="1" parent="1">
          <mxGeometry x="305" y="100" width="120" height="60" as="geometry" />
        </mxCell>
        <mxCell id="FA2n_a_aYbFm5MKbmlmY-4" value="Above minimum" style="edgeStyle=orthogonalEdgeStyle;rounded=0;orthogonalLoop=1;jettySize=auto;html=1;exitX=0;exitY=0.5;exitDx=0;exitDy=0;entryX=0;entryY=0.5;entryDx=0;entryDy=0;" edge="1" parent="1" source="FA2n_a_aYbFm5MKbmlmY-3" target="FA2n_a_aYbFm5MKbmlmY-1">
          <mxGeometry relative="1" as="geometry">
            <Array as="points">
              <mxPoint x="270" y="240" />
              <mxPoint x="270" y="130" />
            </Array>
          </mxGeometry>
        </mxCell>
        <mxCell id="FA2n_a_aYbFm5MKbmlmY-8" style="edgeStyle=orthogonalEdgeStyle;rounded=0;orthogonalLoop=1;jettySize=auto;html=1;exitX=0.5;exitY=1;exitDx=0;exitDy=0;entryX=0.5;entryY=0;entryDx=0;entryDy=0;" edge="1" parent="1" source="FA2n_a_aYbFm5MKbmlmY-3" target="FA2n_a_aYbFm5MKbmlmY-7">
          <mxGeometry relative="1" as="geometry" />
        </mxCell>
        <mxCell id="FA2n_a_aYbFm5MKbmlmY-12" style="edgeStyle=orthogonalEdgeStyle;rounded=0;orthogonalLoop=1;jettySize=auto;html=1;exitX=1;exitY=0.5;exitDx=0;exitDy=0;entryX=0.5;entryY=0;entryDx=0;entryDy=0;" edge="1" parent="1" source="FA2n_a_aYbFm5MKbmlmY-3" target="FA2n_a_aYbFm5MKbmlmY-11">
          <mxGeometry relative="1" as="geometry" />
        </mxCell>
        <mxCell id="FA2n_a_aYbFm5MKbmlmY-3" value="Moisture Threshold" style="rounded=1;whiteSpace=wrap;html=1;" vertex="1" parent="1">
          <mxGeometry x="305" y="210" width="120" height="60" as="geometry" />
        </mxCell>
        <mxCell id="FA2n_a_aYbFm5MKbmlmY-13" style="edgeStyle=orthogonalEdgeStyle;rounded=0;orthogonalLoop=1;jettySize=auto;html=1;exitX=0.5;exitY=1;exitDx=0;exitDy=0;entryX=0.5;entryY=0;entryDx=0;entryDy=0;" edge="1" parent="1" source="FA2n_a_aYbFm5MKbmlmY-6" target="FA2n_a_aYbFm5MKbmlmY-10">
          <mxGeometry relative="1" as="geometry" />
        </mxCell>
        <mxCell id="FA2n_a_aYbFm5MKbmlmY-18" style="edgeStyle=orthogonalEdgeStyle;rounded=0;orthogonalLoop=1;jettySize=auto;html=1;exitX=1;exitY=0.5;exitDx=0;exitDy=0;entryX=0.5;entryY=1;entryDx=0;entryDy=0;" edge="1" parent="1" source="FA2n_a_aYbFm5MKbmlmY-6" target="FA2n_a_aYbFm5MKbmlmY-11">
          <mxGeometry relative="1" as="geometry" />
        </mxCell>
        <mxCell id="FA2n_a_aYbFm5MKbmlmY-6" value="Flow-Rate Sensor" style="rounded=1;whiteSpace=wrap;html=1;" vertex="1" parent="1">
          <mxGeometry x="305" y="410" width="120" height="60" as="geometry" />
        </mxCell>
        <mxCell id="FA2n_a_aYbFm5MKbmlmY-9" style="edgeStyle=orthogonalEdgeStyle;rounded=0;orthogonalLoop=1;jettySize=auto;html=1;exitX=0.5;exitY=1;exitDx=0;exitDy=0;entryX=0.5;entryY=0;entryDx=0;entryDy=0;" edge="1" parent="1" source="FA2n_a_aYbFm5MKbmlmY-7" target="FA2n_a_aYbFm5MKbmlmY-6">
          <mxGeometry relative="1" as="geometry" />
        </mxCell>
        <mxCell id="FA2n_a_aYbFm5MKbmlmY-7" value="Water Pump " style="rounded=0;whiteSpace=wrap;html=1;" vertex="1" parent="1">
          <mxGeometry x="305" y="310" width="120" height="60" as="geometry" />
        </mxCell>
        <mxCell id="FA2n_a_aYbFm5MKbmlmY-15" style="edgeStyle=orthogonalEdgeStyle;rounded=0;orthogonalLoop=1;jettySize=auto;html=1;exitX=0.5;exitY=1;exitDx=0;exitDy=0;entryX=0.5;entryY=0;entryDx=0;entryDy=0;" edge="1" parent="1" source="FA2n_a_aYbFm5MKbmlmY-10" target="FA2n_a_aYbFm5MKbmlmY-14">
          <mxGeometry relative="1" as="geometry" />
        </mxCell>
        <mxCell id="FA2n_a_aYbFm5MKbmlmY-10" value="Plant" style="rounded=1;whiteSpace=wrap;html=1;" vertex="1" parent="1">
          <mxGeometry x="305" y="510" width="120" height="60" as="geometry" />
        </mxCell>
        <mxCell id="FA2n_a_aYbFm5MKbmlmY-11" value="Raspberry Pi Data Storage" style="whiteSpace=wrap;html=1;aspect=fixed;" vertex="1" parent="1">
          <mxGeometry x="550" y="300" width="80" height="80" as="geometry" />
        </mxCell>
        <mxCell id="FA2n_a_aYbFm5MKbmlmY-16" value="Below minimum" style="edgeStyle=orthogonalEdgeStyle;rounded=0;orthogonalLoop=1;jettySize=auto;html=1;exitX=0;exitY=0.5;exitDx=0;exitDy=0;entryX=0;entryY=0.5;entryDx=0;entryDy=0;" edge="1" parent="1" source="FA2n_a_aYbFm5MKbmlmY-14" target="FA2n_a_aYbFm5MKbmlmY-7">
          <mxGeometry relative="1" as="geometry">
            <Array as="points">
              <mxPoint x="270" y="640" />
              <mxPoint x="270" y="340" />
            </Array>
          </mxGeometry>
        </mxCell>
        <mxCell id="FA2n_a_aYbFm5MKbmlmY-17" value="Above minimum" style="edgeStyle=orthogonalEdgeStyle;rounded=0;orthogonalLoop=1;jettySize=auto;html=1;exitX=0.5;exitY=1;exitDx=0;exitDy=0;entryX=0.5;entryY=0;entryDx=0;entryDy=0;" edge="1" parent="1" source="FA2n_a_aYbFm5MKbmlmY-14" target="FA2n_a_aYbFm5MKbmlmY-1">
          <mxGeometry relative="1" as="geometry">
            <Array as="points">
              <mxPoint x="365" y="690" />
              <mxPoint x="190" y="690" />
              <mxPoint x="190" y="80" />
              <mxPoint x="365" y="80" />
            </Array>
          </mxGeometry>
        </mxCell>
        <mxCell id="FA2n_a_aYbFm5MKbmlmY-14" value="Freshly-watered Moisture Threshold" style="rounded=1;whiteSpace=wrap;html=1;" vertex="1" parent="1">
          <mxGeometry x="305" y="610" width="120" height="60" as="geometry" />
        </mxCell>
      </root>
    </mxGraphModel>
  </diagram>
</mxfile>
